<svg width="17" height="17" viewBox="0 0 17 17" fill="none" xmlns="http://www.w3.org/2000/svg">
<path fill-rule="evenodd" clip-rule="evenodd" d="M0.146523 0.853553C-0.048739 0.658291 -0.0487391 0.341708 0.146523 0.146446C0.341785 -0.048816 0.658368 -0.0488161 0.85363 0.146446L8.27821 7.57103L15.7028 0.146449C15.8981 -0.048813 16.2146 -0.048813 16.4099 0.146449C16.6052 0.341711 16.6052 0.658294 16.4099 0.853556L8.98532 8.27814L16.41 15.7028C16.6052 15.8981 16.6052 16.2146 16.41 16.4099C16.2147 16.6052 15.8981 16.6052 15.7029 16.4099L8.27821 8.98524L0.853554 16.4099C0.658292 16.6052 0.34171 16.6052 0.146448 16.4099C-0.0488146 16.2146 -0.0488147 15.8981 0.146447 15.7028L7.57111 8.27814L0.146523 0.853553Z" fill="white"/>
</svg>
